<?xml version="1.0" encoding="iso-8859-1"?>
<!-- Generator: Adobe Illustrator 19.0.0, SVG Export Plug-In . SVG Version: 6.00 Build 0)  -->
<svg version="1.1" id="Capa_1" xmlns="http://www.w3.org/2000/svg" xmlns:xlink="http://www.w3.org/1999/xlink" x="0px" y="0px"
	 viewBox="0 0 512 512" style="enable-background:new 0 0 512 512;" xml:space="preserve">
<path style="fill:#303C42;" d="M371.042,184c8.5-17.438,12.958-36.646,12.958-56C384,57.417,326.583,0,256,0S128,57.417,128,128
	c0,19.354,4.458,38.563,12.958,56c-35.438,40.469-55.625,97.323-55.625,157.333c0,65.729,23.771,126.813,65.229,167.604
	c2,1.958,4.688,3.063,7.479,3.063h195.917c2.792,0,5.479-1.104,7.479-3.063c41.458-40.792,65.229-101.875,65.229-167.604
	C426.667,281.323,406.479,224.469,371.042,184z"/>
<path style="fill:#E6E6E6;" d="M117.115,271.728c25.095-21.969,60.358-38.055,89.909-47.71
	c-10.96,18.852-14.612,39.315-14.878,40.898c-0.604,3.625,0.708,7.323,3.479,9.75c1.958,1.74,4.479,2.667,7.042,2.667
	c1.021,0,2.063-0.146,3.063-0.448c4.486-1.35,34.039-10.786,50.271-28.497c16.232,17.711,45.785,27.147,50.271,28.497
	c1,0.302,2.042,0.448,3.063,0.448c2.563,0,5.083-0.927,7.042-2.667c2.771-2.427,4.083-6.125,3.479-9.75
	c-0.266-1.583-3.918-22.047-14.878-40.898c29.551,9.655,64.814,25.741,89.909,47.71c6.708,21.944,10.448,45.422,10.448,69.605
	H106.667C106.667,317.15,110.406,293.672,117.115,271.728z"/>
<path style="fill:#FDD1B0;" d="M192.099,127.026c7.68-0.911,15.098-2.75,22.016-5.822c1.555,3.967,5.367,6.796,9.885,6.796
	c5.891,0,10.667-4.776,10.667-10.667c0-2.611-1.047-4.918-2.604-6.772c9.911-7.525,17.982-16.728,23.938-26.311
	c5.956,9.583,14.026,18.786,23.938,26.311c-1.557,1.854-2.604,4.161-2.604,6.772c0,5.891,4.776,10.667,10.667,10.667
	c4.518,0,8.331-2.831,9.885-6.797c6.918,3.072,14.336,4.911,22.016,5.823c0.005,0.332,0.099,0.641,0.099,0.974
	c0,35.292-28.708,64-64,64s-64-28.708-64-64C192,127.667,192.094,127.358,192.099,127.026z"/>
<g>
	<path style="fill:#D32F2F;" d="M293.25,248.865c-13.917-6.813-26.583-16.156-26.583-24.865c0-5.896-4.771-10.667-10.667-10.667
		c-5.896,0-10.667,4.771-10.667,10.667c0,8.635-12.583,17.948-26.458,24.771c6.063-15.823,17.5-35.438,37.125-35.438
		C275.875,213.333,287.292,233.031,293.25,248.865z"/>
	<path style="fill:#D32F2F;" d="M163.167,180.417c-9.042-16.01-13.833-34.146-13.833-52.417
		c0-58.813,47.854-106.667,106.667-106.667S362.667,69.188,362.667,128c0,18.271-4.792,36.406-13.833,52.417
		c-2.292,4.083-1.667,9.198,1.563,12.594c11.4,12.012,21.027,26.008,29.073,41.219c-26.072-15.874-54.923-27.008-78.831-33.835
		c24.322-15.051,40.695-41.751,40.695-72.395c0-47.052-38.271-85.333-85.333-85.333S170.667,80.948,170.667,128
		c0,30.643,16.374,57.344,40.695,72.395c-23.908,6.827-52.76,17.962-78.831,33.835c8.046-15.211,17.673-29.207,29.073-41.219
		C164.833,189.615,165.458,184.5,163.167,180.417z"/>
	<path style="fill:#D32F2F;" d="M349.521,490.667H162.479c-31.151-32.257-50.574-77.871-54.885-128h296.813
		C400.095,412.796,380.672,458.41,349.521,490.667z"/>
	<path style="fill:#D32F2F;" d="M256.012,176.667c7.993,0,14.474-3.378,14.474-7.543s-28.947-4.165-28.947,0
		S248.02,176.667,256.012,176.667z"/>
</g>
<g>
	<path style="fill:#8D6E63;" d="M269.889,65.615c21.038,4.685,38.082,19.738,45.702,39.514
		C293.496,99.736,276.525,81.057,269.889,65.615z"/>
	<path style="fill:#8D6E63;" d="M196.41,105.129c7.62-19.776,24.663-34.829,45.701-39.514
		C235.477,81.057,218.503,99.736,196.41,105.129z"/>
</g>
<path style="opacity:0.1;enable-background:new    ;" d="M358.556,341.333h46.777c0-24.184-3.74-47.661-10.448-69.605
	c-11.146-9.757-24.422-18.155-38.186-25.543c3.799,16.952,5.967,34.556,5.967,52.482
	C362.667,313.273,361.014,327.465,358.556,341.333z"/>
<path style="opacity:0.1;enable-background:new    ;" d="M341.333,128c0,17.397-5.411,33.426-14.424,46.871
	c8.76,13.25,16.115,27.793,21.762,43.367c10.387,4.72,20.794,9.9,30.798,15.991c-8.046-15.211-17.673-29.207-29.073-41.219
	c-3.229-3.396-3.854-8.51-1.563-12.594c9.042-16.01,13.833-34.146,13.833-52.417c0-40.396-22.84-75.197-56.036-93.297
	c5.948,10.909,10.026,22.833,11.852,35.611C332.54,85.533,341.333,105.695,341.333,128z"/>
<path style="opacity:0.1;enable-background:new    ;" d="M353.509,363.678C339.387,414.043,292.232,448,239.925,448l-107.945,0
	c8.318,15.852,18.52,30.263,30.499,42.667h187.042c31.151-32.257,50.574-77.871,54.885-128H353.79
	C353.697,363.004,353.603,363.341,353.509,363.678z"/>
<linearGradient id="SVGID_1_" gradientUnits="userSpaceOnUse" x1="-42.7399" y1="637.4451" x2="-25.8646" y2="629.5774" gradientTransform="matrix(21.3333 0 0 -21.3333 996.3334 13791.667)">
	<stop  offset="0" style="stop-color:#FFFFFF;stop-opacity:0.2"/>
	<stop  offset="1" style="stop-color:#FFFFFF;stop-opacity:0"/>
</linearGradient>
<path style="fill:url(#SVGID_1_);" d="M371.042,184c8.5-17.438,12.958-36.646,12.958-56C384,57.417,326.583,0,256,0
	S128,57.417,128,128c0,19.354,4.458,38.563,12.958,56c-35.438,40.469-55.625,97.323-55.625,157.333
	c0,65.729,23.771,126.813,65.229,167.604c2,1.958,4.688,3.063,7.479,3.063h195.917c2.792,0,5.479-1.104,7.479-3.063
	c41.458-40.792,65.229-101.875,65.229-167.604C426.667,281.323,406.479,224.469,371.042,184z"/>
<g>
</g>
<g>
</g>
<g>
</g>
<g>
</g>
<g>
</g>
<g>
</g>
<g>
</g>
<g>
</g>
<g>
</g>
<g>
</g>
<g>
</g>
<g>
</g>
<g>
</g>
<g>
</g>
<g>
</g>
</svg>
