<?xml version="1.0" encoding="UTF-8"?>
<svg width="233px" height="217px" viewBox="0 0 233 217" version="1.1" xmlns="http://www.w3.org/2000/svg" xmlns:xlink="http://www.w3.org/1999/xlink">
    <!-- Generator: Sketch 51.2 (57519) - http://www.bohemiancoding.com/sketch -->
    <title>Untitled</title>
    <desc>Created with Sketch.</desc>
    <defs>
        <linearGradient x1="50%" y1="100%" x2="50%" y2="3.061617e-15%" id="linearGradient-1">
            <stop stop-color="#9ABF6D" offset="0%"></stop>
            <stop stop-color="#BEE09B" offset="100%"></stop>
        </linearGradient>
    </defs>
    <g id="Page-1" stroke="none" stroke-width="1" fill="none" fill-rule="evenodd">
        <path d="M108.466479,217 C164.345865,217 178.024845,184.921886 190.151058,170.215357 C203.824049,153.632915 211.399642,157.085534 224.449345,164.7539 C233.133397,169.856889 235.639188,152.013326 229.940461,137.048342 C224.241734,122.083357 205.858684,128.843664 206.628642,119.354747 C212.344317,48.9150909 168.370861,0.0670427665 108.466479,0.0670427665 C48.5620966,0.0670427665 0,48.6291394 0,108.533521 C0,168.437903 48.5856927,217 108.466479,217 Z" id="Oval" fill="url(#linearGradient-1)"></path>
        <path d="M118.939496,177.45378 C148.812523,177.45378 166.599788,154.994334 171.52168,131.838649 C173.581135,122.149675 170.945344,102.294037 164.549369,89.7705159 C145.025952,51.5430453 69.0492706,25.803124 76.206593,70.9926791 C78.1971346,83.5604637 102.237171,76.2254573 114.46803,90.462996 C125.154464,102.902722 133.912359,117.576363 118.766892,132.310306 C103.426633,147.23375 62.8004562,88.1080855 52.5148078,99.8991842 C20.7577596,136.304326 75.4196456,177.45378 118.939496,177.45378 Z" id="Oval" fill="#FFFFFF" transform="translate(107.623162, 112.224501) rotate(-192.000000) translate(-107.623162, -112.224501) "></path>
    </g>
</svg>